STARTFONT 2.1
FONT -jmk-Glean-Medium-R-Normal--20-180-75-75-C-100-ISO10646-1
SIZE 20 75 75
FONTBOUNDINGBOX 10 20 0 -4
COMMENT "Generated by fontforge, http://fontforge.sourceforge.net"
STARTPROPERTIES 29
FONTNAME_REGISTRY ""
FOUNDRY "jmk"
FAMILY_NAME "Glean"
WEIGHT_NAME "Medium"
SLANT "R"
SETWIDTH_NAME "Normal"
ADD_STYLE_NAME ""
PIXEL_SIZE 20
POINT_SIZE 180
RESOLUTION_X 75
RESOLUTION_Y 75
SPACING "C"
AVERAGE_WIDTH 100
CHARSET_REGISTRY "ISO10646"
CHARSET_ENCODING "1"
COPYRIGHT "Ben Weinstein-Raun <b@w-r.me>"
WEIGHT 150
RESOLUTION 75
X_HEIGHT 9
FIGURE_WIDTH 10
QUAD_WIDTH 10
FONT_ASCENT 16
FONT_DESCENT 4
_XMBDFED_INFO "Edited with xmbdfed 3.7."
RELATIVE_WEIGHT 50
RELATIVE_SETWIDTH 50
CAP_HEIGHT 13
UNDERLINE_POSITION -2
UNDERLINE_THICKNESS 1
ENDPROPERTIES
CHARS 241
STARTCHAR solid
ENCODING 0
SWIDTH 480 0
DWIDTH 10 0
BBX 8 18 1 -3
BITMAP
FF
FF
FF
FF
FF
FF
FF
FF
FF
FF
FF
FF
FF
FF
FF
FF
FF
FF
ENDCHAR
STARTCHAR dithered
ENCODING 2
SWIDTH 480 0
DWIDTH 10 0
BBX 10 19 0 -4
BITMAP
5540
AA80
5540
AA80
5540
AA80
5540
AA80
5540
AA80
5540
AA80
5540
AA80
5540
AA80
5540
AA80
5540
ENDCHAR
STARTCHAR horizontal
ENCODING 3
SWIDTH 480 0
DWIDTH 10 0
BBX 8 15 1 -2
BITMAP
CC
CC
CC
FC
CC
CC
CC
00
3F
0C
0C
0C
0C
0C
0C
ENDCHAR
STARTCHAR form
ENCODING 4
SWIDTH 480 0
DWIDTH 10 0
BBX 8 15 1 -2
BITMAP
FC
C0
C0
F8
C0
C0
C0
00
3F
30
30
3E
30
30
30
ENDCHAR
STARTCHAR carriage
ENCODING 5
SWIDTH 480 0
DWIDTH 10 0
BBX 8 15 1 -2
BITMAP
78
CC
C0
C0
C0
CC
78
00
3E
33
33
3E
3C
36
33
ENDCHAR
STARTCHAR line
ENCODING 6
SWIDTH 480 0
DWIDTH 10 0
BBX 8 15 1 -2
BITMAP
C0
C0
C0
C0
C0
C0
FC
00
3F
30
30
3E
30
30
30
ENDCHAR
STARTCHAR plus-minus-sign
ENCODING 8
SWIDTH 480 0
DWIDTH 10 0
BBX 8 9 1 0
BITMAP
18
18
18
FF
18
18
18
00
FF
ENDCHAR
STARTCHAR vertical
ENCODING 10
SWIDTH 480 0
DWIDTH 10 0
BBX 8 15 1 -2
BITMAP
CC
CC
CC
48
78
30
30
00
3F
0C
0C
0C
0C
0C
0C
ENDCHAR
STARTCHAR less-than-or-equal
ENCODING 26
SWIDTH 480 0
DWIDTH 10 0
BBX 7 13 2 -2
BITMAP
04
0C
18
30
60
C0
60
30
18
0C
04
00
FE
ENDCHAR
STARTCHAR greater-than-or-equal
ENCODING 27
SWIDTH 480 0
DWIDTH 10 0
BBX 7 13 1 -2
BITMAP
40
60
30
18
0C
06
0C
18
30
60
40
00
FE
ENDCHAR
STARTCHAR greek
ENCODING 28
SWIDTH 480 0
DWIDTH 10 0
BBX 9 8 0 0
BITMAP
7F80
B300
3300
3300
3300
3300
3300
3180
ENDCHAR
STARTCHAR not-equal
ENCODING 29
SWIDTH 480 0
DWIDTH 10 0
BBX 8 9 1 1
BITMAP
03
06
FF
0C
18
30
FF
60
C0
ENDCHAR
STARTCHAR pound
ENCODING 30
SWIDTH 480 0
DWIDTH 10 0
BBX 8 13 1 0
BITMAP
3C
66
60
60
60
60
F8
60
60
60
60
60
FF
ENDCHAR
STARTCHAR middle
ENCODING 31
SWIDTH 480 0
DWIDTH 10 0
BBX 3 4 3 4
BITMAP
40
E0
E0
40
ENDCHAR
STARTCHAR U+0020
ENCODING 32
SWIDTH 480 0
DWIDTH 10 0
BBX 1 1 9 -4
BITMAP
00
ENDCHAR
STARTCHAR U+0021
ENCODING 33
SWIDTH 480 0
DWIDTH 10 0
BBX 2 13 4 0
BITMAP
C0
C0
C0
C0
C0
C0
C0
C0
C0
00
C0
C0
C0
ENDCHAR
STARTCHAR U+0022
ENCODING 34
SWIDTH 480 0
DWIDTH 10 0
BBX 6 5 2 9
BITMAP
CC
CC
CC
CC
CC
ENDCHAR
STARTCHAR U+0023
ENCODING 35
SWIDTH 480 0
DWIDTH 10 0
BBX 8 12 1 0
BITMAP
24
24
24
FF
FF
24
24
FF
FF
24
24
24
ENDCHAR
STARTCHAR U+0024
ENCODING 36
SWIDTH 480 0
DWIDTH 10 0
BBX 7 13 1 0
BITMAP
10
10
7C
D6
D0
70
38
1C
16
D6
7C
10
10
ENDCHAR
STARTCHAR U+0025
ENCODING 37
SWIDTH 480 0
DWIDTH 10 0
BBX 8 13 1 0
BITMAP
61
F3
92
F6
6C
08
18
10
36
6F
49
CF
86
ENDCHAR
STARTCHAR U+0026
ENCODING 38
SWIDTH 480 0
DWIDTH 10 0
BBX 7 15 1 -2
BITMAP
10
10
10
7C
C6
C0
C0
78
C0
C0
C6
7C
10
10
10
ENDCHAR
STARTCHAR U+0027
ENCODING 39
SWIDTH 480 0
DWIDTH 10 0
BBX 5 5 2 9
BITMAP
38
30
60
40
80
ENDCHAR
STARTCHAR U+0028
ENCODING 40
SWIDTH 480 0
DWIDTH 10 0
BBX 5 17 3 -3
BITMAP
08
18
30
60
60
C0
C0
C0
C0
C0
C0
C0
60
60
30
18
08
ENDCHAR
STARTCHAR U+0029
ENCODING 41
SWIDTH 480 0
DWIDTH 10 0
BBX 5 17 2 -3
BITMAP
80
C0
60
30
30
18
18
18
18
18
18
18
30
30
60
C0
80
ENDCHAR
STARTCHAR U+002a
ENCODING 42
SWIDTH 480 0
DWIDTH 10 0
BBX 7 7 1 2
BITMAP
44
6C
38
FE
38
6C
44
ENDCHAR
STARTCHAR U+002b
ENCODING 43
SWIDTH 480 0
DWIDTH 10 0
BBX 8 7 1 2
BITMAP
18
18
18
FF
18
18
18
ENDCHAR
STARTCHAR U+002c
ENCODING 44
SWIDTH 480 0
DWIDTH 10 0
BBX 5 5 1 -3
BITMAP
38
30
60
40
80
ENDCHAR
STARTCHAR U+002d
ENCODING 45
SWIDTH 480 0
DWIDTH 10 0
BBX 7 2 1 5
BITMAP
FE
FE
ENDCHAR
STARTCHAR U+002e
ENCODING 46
SWIDTH 480 0
DWIDTH 10 0
BBX 3 4 3 -1
BITMAP
40
E0
E0
40
ENDCHAR
STARTCHAR U+002f
ENCODING 47
SWIDTH 480 0
DWIDTH 10 0
BBX 8 16 1 -2
BITMAP
01
03
02
06
04
0C
08
18
10
30
20
60
40
C0
80
80
ENDCHAR
STARTCHAR U+0030
ENCODING 48
SWIDTH 480 0
DWIDTH 10 0
BBX 8 13 1 0
BITMAP
18
3C
66
C7
CF
CF
DB
F3
F3
E3
66
3C
18
ENDCHAR
STARTCHAR U+0031
ENCODING 49
SWIDTH 480 0
DWIDTH 10 0
BBX 5 13 2 0
BITMAP
08
18
38
78
D8
18
18
18
18
18
18
18
18
ENDCHAR
STARTCHAR U+0032
ENCODING 50
SWIDTH 480 0
DWIDTH 10 0
BBX 8 13 1 0
BITMAP
3C
66
C3
03
03
06
0C
18
30
60
C0
C0
FF
ENDCHAR
STARTCHAR U+0033
ENCODING 51
SWIDTH 480 0
DWIDTH 10 0
BBX 8 13 1 0
BITMAP
FF
03
06
0C
18
3C
06
03
03
03
C3
66
3C
ENDCHAR
STARTCHAR U+0034
ENCODING 52
SWIDTH 480 0
DWIDTH 10 0
BBX 8 13 1 0
BITMAP
0E
1E
16
36
26
66
46
C6
FF
06
06
06
06
ENDCHAR
STARTCHAR U+0035
ENCODING 53
SWIDTH 480 0
DWIDTH 10 0
BBX 8 13 1 0
BITMAP
FF
C0
C0
C0
FC
C6
03
03
03
03
C3
66
3C
ENDCHAR
STARTCHAR U+0036
ENCODING 54
SWIDTH 480 0
DWIDTH 10 0
BBX 8 13 1 0
BITMAP
3C
66
C3
C0
C0
DC
E6
C3
C3
C3
C3
66
3C
ENDCHAR
STARTCHAR U+0037
ENCODING 55
SWIDTH 480 0
DWIDTH 10 0
BBX 8 13 1 0
BITMAP
FF
03
03
06
06
0C
0C
18
18
30
30
60
60
ENDCHAR
STARTCHAR U+0038
ENCODING 56
SWIDTH 480 0
DWIDTH 10 0
BBX 8 13 1 0
BITMAP
3C
66
C3
C3
C3
66
3C
66
C3
C3
C3
66
3C
ENDCHAR
STARTCHAR U+0039
ENCODING 57
SWIDTH 480 0
DWIDTH 10 0
BBX 8 13 1 0
BITMAP
3C
66
C3
C3
C3
C3
67
3B
03
03
C3
66
3C
ENDCHAR
STARTCHAR U+003a
ENCODING 58
SWIDTH 480 0
DWIDTH 10 0
BBX 3 11 3 -1
BITMAP
40
E0
E0
40
00
00
00
40
E0
E0
40
ENDCHAR
STARTCHAR U+003b
ENCODING 59
SWIDTH 480 0
DWIDTH 10 0
BBX 5 13 1 -3
BITMAP
10
38
38
10
00
00
00
00
38
30
60
40
80
ENDCHAR
STARTCHAR U+003c
ENCODING 60
SWIDTH 480 0
DWIDTH 10 0
BBX 6 11 2 0
BITMAP
04
0C
18
30
60
C0
60
30
18
0C
04
ENDCHAR
STARTCHAR U+003d
ENCODING 61
SWIDTH 480 0
DWIDTH 10 0
BBX 8 6 1 3
BITMAP
FF
FF
00
00
FF
FF
ENDCHAR
STARTCHAR U+003e
ENCODING 62
SWIDTH 480 0
DWIDTH 10 0
BBX 6 11 2 0
BITMAP
80
C0
60
30
18
0C
18
30
60
C0
80
ENDCHAR
STARTCHAR U+003f
ENCODING 63
SWIDTH 480 0
DWIDTH 10 0
BBX 6 13 2 0
BITMAP
F8
0C
0C
18
30
60
60
60
60
00
60
60
60
ENDCHAR
STARTCHAR U+0040
ENCODING 64
SWIDTH 480 0
DWIDTH 10 0
BBX 7 13 1 0
BITMAP
3C
66
C2
82
8E
9A
92
92
9A
8E
C0
60
3C
ENDCHAR
STARTCHAR U+0041
ENCODING 65
SWIDTH 480 0
DWIDTH 10 0
BBX 8 13 1 0
BITMAP
3C
66
C3
C3
C3
C3
FF
C3
C3
C3
C3
C3
C3
ENDCHAR
STARTCHAR U+0042
ENCODING 66
SWIDTH 480 0
DWIDTH 10 0
BBX 8 13 1 0
BITMAP
F8
CC
C6
C6
C6
CC
FC
C6
C3
C3
C3
C6
FC
ENDCHAR
STARTCHAR U+0043
ENCODING 67
SWIDTH 480 0
DWIDTH 10 0
BBX 8 13 1 0
BITMAP
3C
66
C3
C0
C0
C0
C0
C0
C0
C0
C3
66
3C
ENDCHAR
STARTCHAR U+0044
ENCODING 68
SWIDTH 480 0
DWIDTH 10 0
BBX 8 13 1 0
BITMAP
F8
CC
C6
C3
C3
C3
C3
C3
C3
C3
C6
CC
F8
ENDCHAR
STARTCHAR U+0045
ENCODING 69
SWIDTH 480 0
DWIDTH 10 0
BBX 8 13 1 0
BITMAP
FF
C0
C0
C0
C0
C0
FC
C0
C0
C0
C0
C0
FF
ENDCHAR
STARTCHAR U+0046
ENCODING 70
SWIDTH 480 0
DWIDTH 10 0
BBX 8 13 1 0
BITMAP
FF
C0
C0
C0
C0
C0
FC
C0
C0
C0
C0
C0
C0
ENDCHAR
STARTCHAR U+0047
ENCODING 71
SWIDTH 480 0
DWIDTH 10 0
BBX 8 13 1 0
BITMAP
3C
66
C3
C0
C0
C0
CF
C3
C3
C3
C3
66
3C
ENDCHAR
STARTCHAR U+0048
ENCODING 72
SWIDTH 480 0
DWIDTH 10 0
BBX 8 13 1 0
BITMAP
C3
C3
C3
C3
C3
C3
FF
C3
C3
C3
C3
C3
C3
ENDCHAR
STARTCHAR U+0049
ENCODING 73
SWIDTH 480 0
DWIDTH 10 0
BBX 6 13 2 0
BITMAP
FC
30
30
30
30
30
30
30
30
30
30
30
FC
ENDCHAR
STARTCHAR U+004a
ENCODING 74
SWIDTH 480 0
DWIDTH 10 0
BBX 8 13 1 0
BITMAP
1F
03
03
03
03
03
03
03
03
03
C3
66
3C
ENDCHAR
STARTCHAR U+004b
ENCODING 75
SWIDTH 480 0
DWIDTH 10 0
BBX 8 13 1 0
BITMAP
C3
C6
CC
D8
F0
F8
D8
CC
CC
C6
C6
C3
C3
ENDCHAR
STARTCHAR U+004c
ENCODING 76
SWIDTH 480 0
DWIDTH 10 0
BBX 8 13 1 0
BITMAP
C0
C0
C0
C0
C0
C0
C0
C0
C0
C0
C0
C0
FF
ENDCHAR
STARTCHAR U+004d
ENCODING 77
SWIDTH 480 0
DWIDTH 10 0
BBX 8 13 1 0
BITMAP
C3
C3
E7
E7
FF
DB
DB
C3
C3
C3
C3
C3
C3
ENDCHAR
STARTCHAR U+004e
ENCODING 78
SWIDTH 480 0
DWIDTH 10 0
BBX 8 13 1 0
BITMAP
C3
C3
E3
E3
F3
D3
DB
CB
CF
C7
C7
C3
C3
ENDCHAR
STARTCHAR U+004f
ENCODING 79
SWIDTH 480 0
DWIDTH 10 0
BBX 8 13 1 0
BITMAP
3C
66
C3
C3
C3
C3
C3
C3
C3
C3
C3
66
3C
ENDCHAR
STARTCHAR U+0050
ENCODING 80
SWIDTH 480 0
DWIDTH 10 0
BBX 8 13 1 0
BITMAP
FC
C6
C3
C3
C3
C3
C6
FC
C0
C0
C0
C0
C0
ENDCHAR
STARTCHAR U+0051
ENCODING 81
SWIDTH 480 0
DWIDTH 10 0
BBX 8 15 1 -2
BITMAP
3C
66
C3
C3
C3
C3
C3
C3
C3
C3
DB
7E
3C
0C
07
ENDCHAR
STARTCHAR U+0052
ENCODING 82
SWIDTH 480 0
DWIDTH 10 0
BBX 8 13 1 0
BITMAP
FC
C6
C3
C3
C3
C3
C6
FC
F0
D8
CC
C6
C3
ENDCHAR
STARTCHAR U+0053
ENCODING 83
SWIDTH 480 0
DWIDTH 10 0
BBX 8 13 1 0
BITMAP
3C
66
C3
C0
C0
60
3C
06
03
03
C3
66
3C
ENDCHAR
STARTCHAR U+0054
ENCODING 84
SWIDTH 480 0
DWIDTH 10 0
BBX 8 13 1 0
BITMAP
FF
18
18
18
18
18
18
18
18
18
18
18
18
ENDCHAR
STARTCHAR U+0055
ENCODING 85
SWIDTH 480 0
DWIDTH 10 0
BBX 8 13 1 0
BITMAP
C3
C3
C3
C3
C3
C3
C3
C3
C3
C3
C3
66
3C
ENDCHAR
STARTCHAR U+0056
ENCODING 86
SWIDTH 480 0
DWIDTH 10 0
BBX 8 13 1 0
BITMAP
C3
C3
C3
C3
C3
C3
C3
42
66
24
3C
18
18
ENDCHAR
STARTCHAR U+0057
ENCODING 87
SWIDTH 480 0
DWIDTH 10 0
BBX 8 13 1 0
BITMAP
C3
C3
C3
C3
C3
C3
DB
DB
DB
DB
FF
E7
42
ENDCHAR
STARTCHAR U+0058
ENCODING 88
SWIDTH 480 0
DWIDTH 10 0
BBX 8 13 1 0
BITMAP
C3
C3
66
66
3C
3C
18
3C
3C
66
66
C3
C3
ENDCHAR
STARTCHAR U+0059
ENCODING 89
SWIDTH 480 0
DWIDTH 10 0
BBX 8 13 1 0
BITMAP
C3
C3
C3
C3
C3
66
3C
18
18
18
18
18
18
ENDCHAR
STARTCHAR U+005a
ENCODING 90
SWIDTH 480 0
DWIDTH 10 0
BBX 8 13 1 0
BITMAP
FF
03
06
06
0C
0C
18
30
30
60
60
C0
FF
ENDCHAR
STARTCHAR U+005b
ENCODING 91
SWIDTH 480 0
DWIDTH 10 0
BBX 6 17 2 -3
BITMAP
FC
C0
C0
C0
C0
C0
C0
C0
C0
C0
C0
C0
C0
C0
C0
C0
FC
ENDCHAR
STARTCHAR U+005c
ENCODING 92
SWIDTH 480 0
DWIDTH 10 0
BBX 8 16 1 -2
BITMAP
80
C0
40
60
20
30
10
18
08
0C
04
06
02
03
01
01
ENDCHAR
STARTCHAR U+005d
ENCODING 93
SWIDTH 480 0
DWIDTH 10 0
BBX 6 17 2 -3
BITMAP
FC
0C
0C
0C
0C
0C
0C
0C
0C
0C
0C
0C
0C
0C
0C
0C
FC
ENDCHAR
STARTCHAR U+005e
ENCODING 94
SWIDTH 480 0
DWIDTH 10 0
BBX 8 5 1 8
BITMAP
18
3C
66
C3
81
ENDCHAR
STARTCHAR U+005f
ENCODING 95
SWIDTH 480 0
DWIDTH 10 0
BBX 8 2 1 -3
BITMAP
FF
FF
ENDCHAR
STARTCHAR U+0060
ENCODING 96
SWIDTH 480 0
DWIDTH 10 0
BBX 5 5 2 9
BITMAP
E0
60
30
10
08
ENDCHAR
STARTCHAR U+0061
ENCODING 97
SWIDTH 480 0
DWIDTH 10 0
BBX 8 9 1 0
BITMAP
7C
06
03
3F
63
C3
C3
C7
7B
ENDCHAR
STARTCHAR U+0062
ENCODING 98
SWIDTH 480 0
DWIDTH 10 0
BBX 8 13 1 0
BITMAP
C0
C0
C0
C0
DC
E6
C3
C3
C3
C3
C3
E6
DC
ENDCHAR
STARTCHAR U+0063
ENCODING 99
SWIDTH 480 0
DWIDTH 10 0
BBX 8 9 1 0
BITMAP
3E
63
C0
C0
C0
C0
C0
63
3E
ENDCHAR
STARTCHAR U+0064
ENCODING 100
SWIDTH 480 0
DWIDTH 10 0
BBX 8 13 1 0
BITMAP
03
03
03
03
3B
67
C3
C3
C3
C3
C3
67
3B
ENDCHAR
STARTCHAR U+0065
ENCODING 101
SWIDTH 480 0
DWIDTH 10 0
BBX 8 9 1 0
BITMAP
3C
66
C3
C3
FF
C0
C0
63
3E
ENDCHAR
STARTCHAR U+0066
ENCODING 102
SWIDTH 480 0
DWIDTH 10 0
BBX 8 13 1 0
BITMAP
1E
33
60
60
60
60
FE
60
60
60
60
60
60
ENDCHAR
STARTCHAR U+0067
ENCODING 103
SWIDTH 480 0
DWIDTH 10 0
BBX 8 13 1 -4
BITMAP
3B
67
C3
C3
C3
C3
67
3B
03
03
C3
66
3C
ENDCHAR
STARTCHAR U+0068
ENCODING 104
SWIDTH 480 0
DWIDTH 10 0
BBX 8 13 1 0
BITMAP
C0
C0
C0
C0
DC
E6
C3
C3
C3
C3
C3
C3
C3
ENDCHAR
STARTCHAR U+0069
ENCODING 105
SWIDTH 480 0
DWIDTH 10 0
BBX 4 13 2 0
BITMAP
30
30
30
00
F0
30
30
30
30
30
30
30
30
ENDCHAR
STARTCHAR U+006a
ENCODING 106
SWIDTH 480 0
DWIDTH 10 0
BBX 7 17 1 -4
BITMAP
06
06
06
00
1E
06
06
06
06
06
06
06
06
06
C6
6C
38
ENDCHAR
STARTCHAR U+006b
ENCODING 107
SWIDTH 480 0
DWIDTH 10 0
BBX 8 13 1 0
BITMAP
C0
C0
C0
C0
C6
CC
D8
F0
F0
D8
CC
C6
C3
ENDCHAR
STARTCHAR U+006c
ENCODING 108
SWIDTH 480 0
DWIDTH 10 0
BBX 6 13 2 0
BITMAP
E0
70
30
30
30
30
30
30
30
30
30
38
1C
ENDCHAR
STARTCHAR U+006d
ENCODING 109
SWIDTH 480 0
DWIDTH 10 0
BBX 8 9 1 0
BITMAP
B6
DB
DB
DB
DB
DB
DB
DB
C3
ENDCHAR
STARTCHAR U+006e
ENCODING 110
SWIDTH 480 0
DWIDTH 10 0
BBX 8 9 1 0
BITMAP
DC
E6
C3
C3
C3
C3
C3
C3
C3
ENDCHAR
STARTCHAR U+006f
ENCODING 111
SWIDTH 480 0
DWIDTH 10 0
BBX 8 9 1 0
BITMAP
3C
66
C3
C3
C3
C3
C3
66
3C
ENDCHAR
STARTCHAR U+0070
ENCODING 112
SWIDTH 480 0
DWIDTH 10 0
BBX 8 13 1 -4
BITMAP
DC
E6
C3
C3
C3
C3
E6
DC
C0
C0
C0
C0
C0
ENDCHAR
STARTCHAR U+0071
ENCODING 113
SWIDTH 480 0
DWIDTH 10 0
BBX 8 13 1 -4
BITMAP
3B
67
C3
C3
C3
C3
67
3B
03
03
03
03
03
ENDCHAR
STARTCHAR U+0072
ENCODING 114
SWIDTH 480 0
DWIDTH 10 0
BBX 8 9 1 0
BITMAP
DE
E3
C0
C0
C0
C0
C0
C0
C0
ENDCHAR
STARTCHAR U+0073
ENCODING 115
SWIDTH 480 0
DWIDTH 10 0
BBX 8 9 1 0
BITMAP
7E
C3
C0
70
1C
06
03
C3
7E
ENDCHAR
STARTCHAR U+0074
ENCODING 116
SWIDTH 480 0
DWIDTH 10 0
BBX 8 12 1 0
BITMAP
60
60
60
FE
60
60
60
60
60
60
33
1E
ENDCHAR
STARTCHAR U+0075
ENCODING 117
SWIDTH 480 0
DWIDTH 10 0
BBX 8 9 1 0
BITMAP
C3
C3
C3
C3
C3
C3
C3
67
3B
ENDCHAR
STARTCHAR U+0076
ENCODING 118
SWIDTH 480 0
DWIDTH 10 0
BBX 8 9 1 0
BITMAP
C3
C3
C3
42
66
24
3C
18
18
ENDCHAR
STARTCHAR U+0077
ENCODING 119
SWIDTH 480 0
DWIDTH 10 0
BBX 8 9 1 0
BITMAP
C3
C3
C3
DB
DB
DB
FF
E7
42
ENDCHAR
STARTCHAR U+0078
ENCODING 120
SWIDTH 480 0
DWIDTH 10 0
BBX 8 9 1 0
BITMAP
C3
C3
66
3C
18
3C
66
C3
C3
ENDCHAR
STARTCHAR U+0079
ENCODING 121
SWIDTH 480 0
DWIDTH 10 0
BBX 8 13 1 -4
BITMAP
C3
C3
C3
C3
C3
C3
67
3B
03
03
C3
66
3C
ENDCHAR
STARTCHAR U+007a
ENCODING 122
SWIDTH 480 0
DWIDTH 10 0
BBX 8 9 1 0
BITMAP
FF
03
06
0C
18
30
60
C0
FF
ENDCHAR
STARTCHAR U+007b
ENCODING 123
SWIDTH 480 0
DWIDTH 10 0
BBX 7 17 1 -3
BITMAP
0E
18
18
18
18
18
18
30
E0
30
18
18
18
18
18
18
0E
ENDCHAR
STARTCHAR U+007c
ENCODING 124
SWIDTH 480 0
DWIDTH 10 0
BBX 2 16 4 -2
BITMAP
C0
C0
C0
C0
C0
C0
C0
C0
C0
C0
C0
C0
C0
C0
C0
C0
ENDCHAR
STARTCHAR U+007d
ENCODING 125
SWIDTH 480 0
DWIDTH 10 0
BBX 7 17 2 -3
BITMAP
E0
30
30
30
30
30
30
18
0E
18
30
30
30
30
30
30
E0
ENDCHAR
STARTCHAR U+007e
ENCODING 126
SWIDTH 480 0
DWIDTH 10 0
BBX 8 4 1 8
BITMAP
63
D3
CB
C6
ENDCHAR
STARTCHAR nil
ENCODING 127
SWIDTH 480 0
DWIDTH 10 0
BBX 8 18 1 -3
BITMAP
FF
81
81
81
81
81
81
81
81
81
81
81
81
81
81
81
81
FF
ENDCHAR
STARTCHAR nil
ENCODING 128
SWIDTH 480 0
DWIDTH 10 0
BBX 8 18 1 -3
BITMAP
FF
81
81
81
81
81
81
81
81
81
81
81
81
81
81
81
81
FF
ENDCHAR
STARTCHAR nil
ENCODING 129
SWIDTH 480 0
DWIDTH 10 0
BBX 8 18 1 -3
BITMAP
FF
81
81
81
81
81
81
81
81
81
81
81
81
81
81
81
81
FF
ENDCHAR
STARTCHAR nil
ENCODING 130
SWIDTH 480 0
DWIDTH 10 0
BBX 8 18 1 -3
BITMAP
FF
81
81
81
81
81
81
81
81
81
81
81
81
81
81
81
81
FF
ENDCHAR
STARTCHAR nil
ENCODING 131
SWIDTH 480 0
DWIDTH 10 0
BBX 8 18 1 -3
BITMAP
FF
81
81
81
81
81
81
81
81
81
81
81
81
81
81
81
81
FF
ENDCHAR
STARTCHAR nil
ENCODING 132
SWIDTH 480 0
DWIDTH 10 0
BBX 8 18 1 -3
BITMAP
FF
81
81
81
81
81
81
81
81
81
81
81
81
81
81
81
81
FF
ENDCHAR
STARTCHAR nil
ENCODING 133
SWIDTH 480 0
DWIDTH 10 0
BBX 8 18 1 -3
BITMAP
FF
81
81
81
81
81
81
81
81
81
81
81
81
81
81
81
81
FF
ENDCHAR
STARTCHAR nil
ENCODING 134
SWIDTH 480 0
DWIDTH 10 0
BBX 8 18 1 -3
BITMAP
FF
81
81
81
81
81
81
81
81
81
81
81
81
81
81
81
81
FF
ENDCHAR
STARTCHAR nil
ENCODING 135
SWIDTH 480 0
DWIDTH 10 0
BBX 8 18 1 -3
BITMAP
FF
81
81
81
81
81
81
81
81
81
81
81
81
81
81
81
81
FF
ENDCHAR
STARTCHAR nil
ENCODING 136
SWIDTH 480 0
DWIDTH 10 0
BBX 8 18 1 -3
BITMAP
FF
81
81
81
81
81
81
81
81
81
81
81
81
81
81
81
81
FF
ENDCHAR
STARTCHAR nil
ENCODING 137
SWIDTH 480 0
DWIDTH 10 0
BBX 8 18 1 -3
BITMAP
FF
81
81
81
81
81
81
81
81
81
81
81
81
81
81
81
81
FF
ENDCHAR
STARTCHAR nil
ENCODING 138
SWIDTH 480 0
DWIDTH 10 0
BBX 8 18 1 -3
BITMAP
FF
81
81
81
81
81
81
81
81
81
81
81
81
81
81
81
81
FF
ENDCHAR
STARTCHAR nil
ENCODING 139
SWIDTH 480 0
DWIDTH 10 0
BBX 8 18 1 -3
BITMAP
FF
81
81
81
81
81
81
81
81
81
81
81
81
81
81
81
81
FF
ENDCHAR
STARTCHAR nil
ENCODING 140
SWIDTH 480 0
DWIDTH 10 0
BBX 8 18 1 -3
BITMAP
FF
81
81
81
81
81
81
81
81
81
81
81
81
81
81
81
81
FF
ENDCHAR
STARTCHAR nil
ENCODING 141
SWIDTH 480 0
DWIDTH 10 0
BBX 8 18 1 -3
BITMAP
FF
81
81
81
81
81
81
81
81
81
81
81
81
81
81
81
81
FF
ENDCHAR
STARTCHAR nil
ENCODING 142
SWIDTH 480 0
DWIDTH 10 0
BBX 8 18 1 -3
BITMAP
FF
81
81
81
81
81
81
81
81
81
81
81
81
81
81
81
81
FF
ENDCHAR
STARTCHAR nil
ENCODING 143
SWIDTH 480 0
DWIDTH 10 0
BBX 8 18 1 -3
BITMAP
FF
81
81
81
81
81
81
81
81
81
81
81
81
81
81
81
81
FF
ENDCHAR
STARTCHAR nil
ENCODING 144
SWIDTH 480 0
DWIDTH 10 0
BBX 8 18 1 -3
BITMAP
FF
81
81
81
81
81
81
81
81
81
81
81
81
81
81
81
81
FF
ENDCHAR
STARTCHAR nil
ENCODING 145
SWIDTH 480 0
DWIDTH 10 0
BBX 8 18 1 -3
BITMAP
FF
81
81
81
81
81
81
81
81
81
81
81
81
81
81
81
81
FF
ENDCHAR
STARTCHAR nil
ENCODING 146
SWIDTH 480 0
DWIDTH 10 0
BBX 8 18 1 -3
BITMAP
FF
81
81
81
81
81
81
81
81
81
81
81
81
81
81
81
81
FF
ENDCHAR
STARTCHAR nil
ENCODING 147
SWIDTH 480 0
DWIDTH 10 0
BBX 8 18 1 -3
BITMAP
FF
81
81
81
81
81
81
81
81
81
81
81
81
81
81
81
81
FF
ENDCHAR
STARTCHAR nil
ENCODING 148
SWIDTH 480 0
DWIDTH 10 0
BBX 8 18 1 -3
BITMAP
FF
81
81
81
81
81
81
81
81
81
81
81
81
81
81
81
81
FF
ENDCHAR
STARTCHAR nil
ENCODING 149
SWIDTH 480 0
DWIDTH 10 0
BBX 8 18 1 -3
BITMAP
FF
81
81
81
81
81
81
81
81
81
81
81
81
81
81
81
81
FF
ENDCHAR
STARTCHAR nil
ENCODING 150
SWIDTH 480 0
DWIDTH 10 0
BBX 8 18 1 -3
BITMAP
FF
81
81
81
81
81
81
81
81
81
81
81
81
81
81
81
81
FF
ENDCHAR
STARTCHAR nil
ENCODING 151
SWIDTH 480 0
DWIDTH 10 0
BBX 8 18 1 -3
BITMAP
FF
81
81
81
81
81
81
81
81
81
81
81
81
81
81
81
81
FF
ENDCHAR
STARTCHAR nil
ENCODING 152
SWIDTH 480 0
DWIDTH 10 0
BBX 8 18 1 -3
BITMAP
FF
81
81
81
81
81
81
81
81
81
81
81
81
81
81
81
81
FF
ENDCHAR
STARTCHAR nil
ENCODING 153
SWIDTH 480 0
DWIDTH 10 0
BBX 8 18 1 -3
BITMAP
FF
81
81
81
81
81
81
81
81
81
81
81
81
81
81
81
81
FF
ENDCHAR
STARTCHAR nil
ENCODING 154
SWIDTH 480 0
DWIDTH 10 0
BBX 8 18 1 -3
BITMAP
FF
81
81
81
81
81
81
81
81
81
81
81
81
81
81
81
81
FF
ENDCHAR
STARTCHAR nil
ENCODING 155
SWIDTH 480 0
DWIDTH 10 0
BBX 8 18 1 -3
BITMAP
FF
81
81
81
81
81
81
81
81
81
81
81
81
81
81
81
81
FF
ENDCHAR
STARTCHAR nil
ENCODING 156
SWIDTH 480 0
DWIDTH 10 0
BBX 8 18 1 -3
BITMAP
FF
81
81
81
81
81
81
81
81
81
81
81
81
81
81
81
81
FF
ENDCHAR
STARTCHAR nil
ENCODING 157
SWIDTH 480 0
DWIDTH 10 0
BBX 8 18 1 -3
BITMAP
FF
81
81
81
81
81
81
81
81
81
81
81
81
81
81
81
81
FF
ENDCHAR
STARTCHAR nil
ENCODING 158
SWIDTH 480 0
DWIDTH 10 0
BBX 8 18 1 -3
BITMAP
FF
81
81
81
81
81
81
81
81
81
81
81
81
81
81
81
81
FF
ENDCHAR
STARTCHAR nil
ENCODING 159
SWIDTH 480 0
DWIDTH 10 0
BBX 8 18 1 -3
BITMAP
FF
81
81
81
81
81
81
81
81
81
81
81
81
81
81
81
81
FF
ENDCHAR
STARTCHAR U+00a0
ENCODING 160
SWIDTH 480 0
DWIDTH 10 0
BBX 1 1 9 -4
BITMAP
00
ENDCHAR
STARTCHAR U+00a1
ENCODING 161
SWIDTH 480 0
DWIDTH 10 0
BBX 2 13 4 -4
BITMAP
C0
C0
C0
00
C0
C0
C0
C0
C0
C0
C0
C0
C0
ENDCHAR
STARTCHAR U+00a2
ENCODING 162
SWIDTH 480 0
DWIDTH 10 0
BBX 8 12 1 0
BITMAP
08
08
3E
6B
C8
C8
C8
C8
6B
3E
08
08
ENDCHAR
STARTCHAR U+00a3
ENCODING 163
SWIDTH 480 0
DWIDTH 10 0
BBX 8 13 1 0
BITMAP
3C
66
60
60
60
60
F8
60
60
60
60
60
FF
ENDCHAR
STARTCHAR U+00a4
ENCODING 164
SWIDTH 480 0
DWIDTH 10 0
BBX 9 9 1 0
BITMAP
8080
5D00
3600
6300
6300
6300
3600
5D00
8080
ENDCHAR
STARTCHAR U+00a5
ENCODING 165
SWIDTH 480 0
DWIDTH 10 0
BBX 8 13 1 0
BITMAP
C3
C3
66
66
3C
3C
FF
18
18
FF
18
18
18
ENDCHAR
STARTCHAR U+00a6
ENCODING 166
SWIDTH 480 0
DWIDTH 10 0
BBX 2 14 4 -1
BITMAP
C0
C0
C0
C0
C0
C0
00
C0
C0
C0
C0
C0
C0
C0
ENDCHAR
STARTCHAR U+00a7
ENCODING 167
SWIDTH 480 0
DWIDTH 10 0
BBX 7 15 1 -2
BITMAP
7E
C0
C0
60
38
6C
C6
C6
C6
6C
38
0C
06
06
FC
ENDCHAR
STARTCHAR U+00a8
ENCODING 168
SWIDTH 480 0
DWIDTH 10 0
BBX 6 2 2 11
BITMAP
CC
CC
ENDCHAR
STARTCHAR U+00a9
ENCODING 169
SWIDTH 480 0
DWIDTH 10 0
BBX 9 13 0 1
BITMAP
3E00
4100
8080
9C80
B680
B080
B080
B080
B680
9C80
8080
4100
3E00
ENDCHAR
STARTCHAR U+00aa
ENCODING 170
SWIDTH 480 0
DWIDTH 10 0
BBX 6 9 2 4
BITMAP
78
0C
7C
CC
CC
DC
6C
00
FC
ENDCHAR
STARTCHAR U+00ab
ENCODING 171
SWIDTH 480 0
DWIDTH 10 0
BBX 9 9 0 1
BITMAP
0880
1980
3300
6600
CC00
6600
3300
1980
0880
ENDCHAR
STARTCHAR U+00ac
ENCODING 172
SWIDTH 480 0
DWIDTH 10 0
BBX 8 5 1 1
BITMAP
FF
03
03
03
03
ENDCHAR
STARTCHAR U+00ad
ENCODING 173
SWIDTH 480 0
DWIDTH 10 0
BBX 5 2 2 5
BITMAP
F8
F8
ENDCHAR
STARTCHAR U+00ae
ENCODING 174
SWIDTH 480 0
DWIDTH 10 0
BBX 9 13 0 1
BITMAP
3E00
4100
8080
AC80
B680
B080
B080
B080
B080
B080
8080
4100
3E00
ENDCHAR
STARTCHAR U+00af
ENCODING 175
SWIDTH 480 0
DWIDTH 10 0
BBX 8 2 1 11
BITMAP
FF
FF
ENDCHAR
STARTCHAR U+00b0
ENCODING 176
SWIDTH 480 0
DWIDTH 10 0
BBX 6 5 2 8
BITMAP
78
CC
CC
CC
78
ENDCHAR
STARTCHAR U+00b1
ENCODING 177
SWIDTH 480 0
DWIDTH 10 0
BBX 8 9 1 0
BITMAP
18
18
18
FF
18
18
18
00
FF
ENDCHAR
STARTCHAR U+00b2
ENCODING 178
SWIDTH 480 0
DWIDTH 10 0
BBX 6 7 2 6
BITMAP
78
CC
0C
38
60
C0
FC
ENDCHAR
STARTCHAR U+00b3
ENCODING 179
SWIDTH 480 0
DWIDTH 10 0
BBX 6 7 2 6
BITMAP
FC
18
30
78
0C
CC
78
ENDCHAR
STARTCHAR U+00b4
ENCODING 180
SWIDTH 480 0
DWIDTH 10 0
BBX 5 3 3 10
BITMAP
38
60
80
ENDCHAR
STARTCHAR U+00b5
ENCODING 181
SWIDTH 480 0
DWIDTH 10 0
BBX 8 11 1 -2
BITMAP
C6
C6
C6
C6
C6
C6
C6
EE
DB
C0
C0
ENDCHAR
STARTCHAR U+00b6
ENCODING 182
SWIDTH 480 0
DWIDTH 10 0
BBX 9 12 0 0
BITMAP
3F80
7F00
C900
C900
C900
C900
7900
3900
0900
0900
0900
0900
ENDCHAR
STARTCHAR U+00b7
ENCODING 183
SWIDTH 480 0
DWIDTH 10 0
BBX 3 4 3 4
BITMAP
40
E0
E0
40
ENDCHAR
STARTCHAR U+00b8
ENCODING 184
SWIDTH 480 0
DWIDTH 10 0
BBX 4 4 3 -3
BITMAP
40
60
30
E0
ENDCHAR
STARTCHAR U+00b9
ENCODING 185
SWIDTH 480 0
DWIDTH 10 0
BBX 4 7 2 6
BITMAP
10
30
70
B0
30
30
30
ENDCHAR
STARTCHAR U+00ba
ENCODING 186
SWIDTH 480 0
DWIDTH 10 0
BBX 7 9 1 4
BITMAP
38
6C
C6
C6
C6
6C
38
00
FE
ENDCHAR
STARTCHAR U+00bb
ENCODING 187
SWIDTH 480 0
DWIDTH 10 0
BBX 9 9 0 1
BITMAP
8800
CC00
6600
3300
1980
3300
6600
CC00
8800
ENDCHAR
STARTCHAR U+00bc
ENCODING 188
SWIDTH 480 0
DWIDTH 10 0
BBX 9 14 0 -1
BITMAP
1000
3000
7000
B000
3000
3000
3000
0300
0700
0B00
1300
1F80
0300
0300
ENDCHAR
STARTCHAR U+00bd
ENCODING 189
SWIDTH 480 0
DWIDTH 10 0
BBX 9 14 0 -1
BITMAP
1000
3000
7000
B000
3000
3000
3000
0F00
1980
0180
0700
0C00
1800
1F80
ENDCHAR
STARTCHAR U+00be
ENCODING 190
SWIDTH 480 0
DWIDTH 10 0
BBX 9 14 0 -1
BITMAP
FC00
1800
3000
7800
0C00
CC00
7800
0300
0700
0B00
1300
1F80
0300
0300
ENDCHAR
STARTCHAR U+00bf
ENCODING 191
SWIDTH 480 0
DWIDTH 10 0
BBX 6 13 2 -4
BITMAP
18
18
18
00
18
18
18
18
30
60
C0
C0
7C
ENDCHAR
STARTCHAR U+00c0
ENCODING 192
SWIDTH 480 0
DWIDTH 10 0
BBX 8 15 1 0
BITMAP
70
18
04
00
3C
66
C3
C3
C3
FF
C3
C3
C3
C3
C3
ENDCHAR
STARTCHAR U+00c1
ENCODING 193
SWIDTH 480 0
DWIDTH 10 0
BBX 8 15 1 0
BITMAP
0E
18
20
00
3C
66
C3
C3
C3
FF
C3
C3
C3
C3
C3
ENDCHAR
STARTCHAR U+00c2
ENCODING 194
SWIDTH 480 0
DWIDTH 10 0
BBX 8 15 1 0
BITMAP
18
3C
66
00
3C
66
C3
C3
C3
FF
C3
C3
C3
C3
C3
ENDCHAR
STARTCHAR U+00c3
ENCODING 195
SWIDTH 480 0
DWIDTH 10 0
BBX 8 15 1 0
BITMAP
71
99
8E
00
3C
66
C3
C3
C3
FF
C3
C3
C3
C3
C3
ENDCHAR
STARTCHAR U+00c4
ENCODING 196
SWIDTH 480 0
DWIDTH 10 0
BBX 8 15 1 0
BITMAP
66
66
00
00
3C
66
C3
C3
C3
FF
C3
C3
C3
C3
C3
ENDCHAR
STARTCHAR U+00c5
ENCODING 197
SWIDTH 480 0
DWIDTH 10 0
BBX 8 15 1 0
BITMAP
3C
42
42
3C
3C
66
C3
C3
C3
FF
C3
C3
C3
C3
C3
ENDCHAR
STARTCHAR U+00c6
ENCODING 198
SWIDTH 480 0
DWIDTH 10 0
BBX 8 13 1 0
BITMAP
3F
6C
CC
CC
CC
CC
FF
CC
CC
CC
CC
CC
CF
ENDCHAR
STARTCHAR U+00c7
ENCODING 199
SWIDTH 480 0
DWIDTH 10 0
BBX 8 16 1 -3
BITMAP
3C
66
C3
C0
C0
C0
C0
C0
C0
C0
C3
66
3C
18
0C
38
ENDCHAR
STARTCHAR U+00c8
ENCODING 200
SWIDTH 480 0
DWIDTH 10 0
BBX 8 15 1 0
BITMAP
70
18
04
00
FF
C0
C0
C0
C0
FC
C0
C0
C0
C0
FF
ENDCHAR
STARTCHAR U+00c9
ENCODING 201
SWIDTH 480 0
DWIDTH 10 0
BBX 8 15 1 0
BITMAP
0E
18
20
00
FF
C0
C0
C0
C0
FC
C0
C0
C0
C0
FF
ENDCHAR
STARTCHAR U+00ca
ENCODING 202
SWIDTH 480 0
DWIDTH 10 0
BBX 8 15 1 0
BITMAP
18
3C
66
00
FF
C0
C0
C0
C0
FC
C0
C0
C0
C0
FF
ENDCHAR
STARTCHAR U+00cb
ENCODING 203
SWIDTH 480 0
DWIDTH 10 0
BBX 8 15 1 0
BITMAP
66
66
00
00
FF
C0
C0
C0
C0
FE
C0
C0
C0
C0
FF
ENDCHAR
STARTCHAR U+00cc
ENCODING 204
SWIDTH 480 0
DWIDTH 10 0
BBX 6 15 2 0
BITMAP
E0
30
08
00
FC
30
30
30
30
30
30
30
30
30
FC
ENDCHAR
STARTCHAR U+00cd
ENCODING 205
SWIDTH 480 0
DWIDTH 10 0
BBX 6 15 2 0
BITMAP
1C
30
40
00
FC
30
30
30
30
30
30
30
30
30
FC
ENDCHAR
STARTCHAR U+00ce
ENCODING 206
SWIDTH 480 0
DWIDTH 10 0
BBX 6 15 2 0
BITMAP
30
78
CC
00
FC
30
30
30
30
30
30
30
30
30
FC
ENDCHAR
STARTCHAR U+00cf
ENCODING 207
SWIDTH 480 0
DWIDTH 10 0
BBX 6 15 2 0
BITMAP
CC
CC
00
00
FC
30
30
30
30
30
30
30
30
30
FC
ENDCHAR
STARTCHAR U+00d0
ENCODING 208
SWIDTH 480 0
DWIDTH 10 0
BBX 9 13 0 0
BITMAP
7C00
6600
6300
6180
6180
6180
F980
6180
6180
6180
6300
6600
7C00
ENDCHAR
STARTCHAR U+00d1
ENCODING 209
SWIDTH 480 0
DWIDTH 10 0
BBX 8 15 1 0
BITMAP
71
99
8E
00
C3
E3
E3
F3
D3
DB
CB
CF
C7
C7
C3
ENDCHAR
STARTCHAR U+00d2
ENCODING 210
SWIDTH 480 0
DWIDTH 10 0
BBX 8 15 1 0
BITMAP
70
18
04
00
3C
66
C3
C3
C3
C3
C3
C3
C3
66
3C
ENDCHAR
STARTCHAR U+00d3
ENCODING 211
SWIDTH 480 0
DWIDTH 10 0
BBX 8 15 1 0
BITMAP
0E
18
20
00
3C
66
C3
C3
C3
C3
C3
C3
C3
66
3C
ENDCHAR
STARTCHAR U+00d4
ENCODING 212
SWIDTH 480 0
DWIDTH 10 0
BBX 8 15 1 0
BITMAP
18
3C
66
00
3C
66
C3
C3
C3
C3
C3
C3
C3
66
3C
ENDCHAR
STARTCHAR U+00d5
ENCODING 213
SWIDTH 480 0
DWIDTH 10 0
BBX 8 15 1 0
BITMAP
71
99
8E
00
3C
66
C3
C3
C3
C3
C3
C3
C3
66
3C
ENDCHAR
STARTCHAR U+00d6
ENCODING 214
SWIDTH 480 0
DWIDTH 10 0
BBX 8 15 1 0
BITMAP
66
66
00
00
3C
66
C3
C3
C3
C3
C3
C3
C3
66
3C
ENDCHAR
STARTCHAR U+00d7
ENCODING 215
SWIDTH 480 0
DWIDTH 10 0
BBX 7 8 1 2
BITMAP
82
C6
6C
38
38
6C
C6
82
ENDCHAR
STARTCHAR U+00d8
ENCODING 216
SWIDTH 480 0
DWIDTH 10 0
BBX 8 15 1 -1
BITMAP
02
3E
66
C7
C7
CB
CB
CB
D3
D3
D3
E3
66
7C
40
ENDCHAR
STARTCHAR U+00d9
ENCODING 217
SWIDTH 480 0
DWIDTH 10 0
BBX 8 15 1 0
BITMAP
70
18
04
00
C3
C3
C3
C3
C3
C3
C3
C3
C3
66
3C
ENDCHAR
STARTCHAR U+00da
ENCODING 218
SWIDTH 480 0
DWIDTH 10 0
BBX 8 15 1 0
BITMAP
0E
18
20
00
C3
C3
C3
C3
C3
C3
C3
C3
C3
66
3C
ENDCHAR
STARTCHAR U+00db
ENCODING 219
SWIDTH 480 0
DWIDTH 10 0
BBX 8 15 1 0
BITMAP
18
3C
66
00
C3
C3
C3
C3
C3
C3
C3
C3
C3
66
3C
ENDCHAR
STARTCHAR U+00dc
ENCODING 220
SWIDTH 480 0
DWIDTH 10 0
BBX 8 15 1 0
BITMAP
66
66
00
00
C3
C3
C3
C3
C3
C3
C3
C3
C3
66
3C
ENDCHAR
STARTCHAR U+00dd
ENCODING 221
SWIDTH 480 0
DWIDTH 10 0
BBX 8 15 1 0
BITMAP
0E
18
20
00
C3
C3
C3
C3
66
3C
18
18
18
18
18
ENDCHAR
STARTCHAR U+00de
ENCODING 222
SWIDTH 480 0
DWIDTH 10 0
BBX 8 13 1 0
BITMAP
C0
C0
C0
FC
C6
C3
C3
C3
C6
FC
C0
C0
C0
ENDCHAR
STARTCHAR U+00df
ENCODING 223
SWIDTH 480 0
DWIDTH 10 0
BBX 8 15 1 -2
BITMAP
3C
66
C6
CC
D8
D8
CC
C6
C3
C3
C3
DB
CE
C0
C0
ENDCHAR
STARTCHAR U+00e0
ENCODING 224
SWIDTH 480 0
DWIDTH 10 0
BBX 8 13 1 0
BITMAP
70
18
04
00
7C
06
03
3F
63
C3
C3
C7
7B
ENDCHAR
STARTCHAR U+00e1
ENCODING 225
SWIDTH 480 0
DWIDTH 10 0
BBX 8 13 1 0
BITMAP
0E
18
20
00
7C
06
03
3F
63
C3
C3
C7
7B
ENDCHAR
STARTCHAR U+00e2
ENCODING 226
SWIDTH 480 0
DWIDTH 10 0
BBX 8 13 1 0
BITMAP
18
3C
66
00
7C
06
03
3F
63
C3
C3
C7
7B
ENDCHAR
STARTCHAR U+00e3
ENCODING 227
SWIDTH 480 0
DWIDTH 10 0
BBX 8 13 1 0
BITMAP
71
99
8E
00
7C
06
03
3F
63
C3
C3
C7
7B
ENDCHAR
STARTCHAR U+00e4
ENCODING 228
SWIDTH 480 0
DWIDTH 10 0
BBX 8 13 1 0
BITMAP
66
66
00
00
7C
06
03
3F
63
C3
C3
C7
7B
ENDCHAR
STARTCHAR U+00e5
ENCODING 229
SWIDTH 480 0
DWIDTH 10 0
BBX 8 14 1 0
BITMAP
3C
42
42
3C
00
7C
06
03
3F
63
C3
C3
C7
7B
ENDCHAR
STARTCHAR U+00e6
ENCODING 230
SWIDTH 480 0
DWIDTH 10 0
BBX 9 9 0 0
BITMAP
7700
0D80
0D80
3D80
6F80
CC00
CC00
DD80
7700
ENDCHAR
STARTCHAR U+00e7
ENCODING 231
SWIDTH 480 0
DWIDTH 10 0
BBX 8 12 1 -3
BITMAP
3E
63
C0
C0
C0
C0
C0
63
3E
18
0C
38
ENDCHAR
STARTCHAR U+00e8
ENCODING 232
SWIDTH 480 0
DWIDTH 10 0
BBX 8 13 1 0
BITMAP
70
18
04
00
3C
66
C3
C3
FF
C0
C0
63
3E
ENDCHAR
STARTCHAR U+00e9
ENCODING 233
SWIDTH 480 0
DWIDTH 10 0
BBX 8 13 1 0
BITMAP
0E
18
20
00
3C
66
C3
C3
FF
C0
C0
63
3E
ENDCHAR
STARTCHAR U+00ea
ENCODING 234
SWIDTH 480 0
DWIDTH 10 0
BBX 8 13 1 0
BITMAP
18
3C
66
00
3C
66
C3
C3
FF
C0
C0
63
3E
ENDCHAR
STARTCHAR U+00eb
ENCODING 235
SWIDTH 480 0
DWIDTH 10 0
BBX 8 13 1 0
BITMAP
66
66
00
00
3C
66
C3
C3
FF
C0
C0
63
3E
ENDCHAR
STARTCHAR U+00ec
ENCODING 236
SWIDTH 480 0
DWIDTH 10 0
BBX 5 13 2 0
BITMAP
E0
30
08
00
F0
30
30
30
30
30
30
30
30
ENDCHAR
STARTCHAR U+00ed
ENCODING 237
SWIDTH 480 0
DWIDTH 10 0
BBX 6 13 2 0
BITMAP
1C
30
40
00
F0
30
30
30
30
30
30
30
30
ENDCHAR
STARTCHAR U+00ee
ENCODING 238
SWIDTH 480 0
DWIDTH 10 0
BBX 6 13 2 0
BITMAP
30
78
CC
00
F0
30
30
30
30
30
30
30
30
ENDCHAR
STARTCHAR U+00ef
ENCODING 239
SWIDTH 480 0
DWIDTH 10 0
BBX 6 13 2 0
BITMAP
CC
CC
00
00
F0
30
30
30
30
30
30
30
30
ENDCHAR
STARTCHAR U+00f0
ENCODING 240
SWIDTH 480 0
DWIDTH 10 0
BBX 8 13 1 0
BITMAP
C0
6C
30
D8
0C
3E
63
C3
C3
C3
C3
66
3C
ENDCHAR
STARTCHAR U+00f1
ENCODING 241
SWIDTH 480 0
DWIDTH 10 0
BBX 8 13 1 0
BITMAP
71
99
8E
00
DC
E6
C3
C3
C3
C3
C3
C3
C3
ENDCHAR
STARTCHAR U+00f2
ENCODING 242
SWIDTH 480 0
DWIDTH 10 0
BBX 8 13 1 0
BITMAP
70
18
04
00
3C
66
C3
C3
C3
C3
C3
66
3C
ENDCHAR
STARTCHAR U+00f3
ENCODING 243
SWIDTH 480 0
DWIDTH 10 0
BBX 8 13 1 0
BITMAP
0E
18
20
00
3C
66
C3
C3
C3
C3
C3
66
3C
ENDCHAR
STARTCHAR U+00f4
ENCODING 244
SWIDTH 480 0
DWIDTH 10 0
BBX 8 13 1 0
BITMAP
18
3C
66
00
3C
66
C3
C3
C3
C3
C3
66
3C
ENDCHAR
STARTCHAR U+00f5
ENCODING 245
SWIDTH 480 0
DWIDTH 10 0
BBX 8 13 1 0
BITMAP
71
99
8E
00
3C
66
C3
C3
C3
C3
C3
66
3C
ENDCHAR
STARTCHAR U+00f6
ENCODING 246
SWIDTH 480 0
DWIDTH 10 0
BBX 8 13 1 0
BITMAP
66
66
00
00
3C
66
C3
C3
C3
C3
C3
66
3C
ENDCHAR
STARTCHAR U+00f7
ENCODING 247
SWIDTH 480 0
DWIDTH 10 0
BBX 8 9 1 1
BITMAP
18
18
00
00
FF
00
00
18
18
ENDCHAR
STARTCHAR U+00f8
ENCODING 248
SWIDTH 480 0
DWIDTH 10 0
BBX 8 11 1 -1
BITMAP
02
3C
66
C7
CB
CB
D3
D3
66
3C
40
ENDCHAR
STARTCHAR U+00f9
ENCODING 249
SWIDTH 480 0
DWIDTH 10 0
BBX 8 13 1 0
BITMAP
70
18
04
00
C3
C3
C3
C3
C3
C3
C3
67
3B
ENDCHAR
STARTCHAR U+00fa
ENCODING 250
SWIDTH 480 0
DWIDTH 10 0
BBX 8 13 1 0
BITMAP
0E
18
20
00
C3
C3
C3
C3
C3
C3
C3
67
3B
ENDCHAR
STARTCHAR U+00fb
ENCODING 251
SWIDTH 480 0
DWIDTH 10 0
BBX 8 13 1 0
BITMAP
18
3C
66
00
C3
C3
C3
C3
C3
C3
C3
67
3B
ENDCHAR
STARTCHAR U+00fc
ENCODING 252
SWIDTH 480 0
DWIDTH 10 0
BBX 8 13 1 0
BITMAP
66
66
00
00
C3
C3
C3
C3
C3
C3
C3
67
3B
ENDCHAR
STARTCHAR U+00fd
ENCODING 253
SWIDTH 480 0
DWIDTH 10 0
BBX 8 17 1 -4
BITMAP
0E
18
20
00
C3
C3
C3
C3
C3
C3
67
3B
03
03
C3
66
3C
ENDCHAR
STARTCHAR U+00fe
ENCODING 254
SWIDTH 480 0
DWIDTH 10 0
BBX 8 17 1 -4
BITMAP
C0
C0
C0
C0
DC
E6
C3
C3
C3
C3
C3
E6
DC
C0
C0
C0
C0
ENDCHAR
STARTCHAR U+00ff
ENCODING 255
SWIDTH 480 0
DWIDTH 10 0
BBX 8 17 1 -4
BITMAP
66
66
00
00
C3
C3
C3
C3
C3
C3
67
3B
03
03
C3
66
3C
ENDCHAR
STARTCHAR null
ENCODING 9216
SWIDTH 480 0
DWIDTH 10 0
BBX 8 15 1 -2
BITMAP
8C
CC
EC
FC
DC
CC
C4
00
30
30
30
30
30
30
3F
ENDCHAR
STARTCHAR box
ENCODING 9633
SWIDTH 480 0
DWIDTH 10 0
BBX 2 20 4 -4
BITMAP
C0
C0
C0
C0
C0
C0
C0
C0
C0
C0
C0
C0
C0
C0
C0
C0
C0
C0
C0
C0
ENDCHAR
STARTCHAR diamond
ENCODING 9830
SWIDTH 480 0
DWIDTH 10 0
BBX 9 9 1 1
BITMAP
0800
1C00
3E00
7F00
FF80
7F00
3E00
1C00
0800
ENDCHAR
ENDFONT
